<mxfile host="app.diagrams.net" modified="2023-04-14T18:05:53.095Z" agent="Mozilla/5.0 (Windows NT 10.0; Win64; x64) AppleWebKit/537.36 (KHTML, like Gecko) Chrome/112.0.0.0 Safari/537.36 Edg/112.0.1722.39" etag="EMTv5eEjKQeXamqcLkwq" version="21.1.8" type="device">
  <diagram name="PÃ¡gina-1" id="FYE1AaSjHG21gxEwm3ek">
    <mxGraphModel dx="636" dy="747" grid="1" gridSize="10" guides="1" tooltips="1" connect="1" arrows="1" fold="1" page="1" pageScale="1" pageWidth="3300" pageHeight="2339" math="0" shadow="0">
      <root>
        <mxCell id="0" />
        <mxCell id="1" parent="0" />
        <mxCell id="yfIUXpZ3AVK_rPEgyNf7-4" value="Personas" style="swimlane;fontStyle=1;childLayout=stackLayout;horizontal=1;startSize=26;horizontalStack=0;resizeParent=1;resizeParentMax=0;resizeLast=0;collapsible=1;marginBottom=0;align=center;fontSize=14;strokeWidth=2;fontFamily=Verdana;" vertex="1" parent="1">
          <mxGeometry x="510" y="140" width="160" height="176" as="geometry" />
        </mxCell>
        <mxCell id="yfIUXpZ3AVK_rPEgyNf7-5" value="id (&lt;i&gt;PK&lt;/i&gt;)" style="text;spacingLeft=4;spacingRight=4;overflow=hidden;rotatable=0;points=[[0,0.5],[1,0.5]];portConstraint=eastwest;fontSize=12;whiteSpace=wrap;html=1;strokeWidth=2;fontFamily=Verdana;" vertex="1" parent="yfIUXpZ3AVK_rPEgyNf7-4">
          <mxGeometry y="26" width="160" height="30" as="geometry" />
        </mxCell>
        <mxCell id="yfIUXpZ3AVK_rPEgyNf7-6" value="nombre" style="text;spacingLeft=4;spacingRight=4;overflow=hidden;rotatable=0;points=[[0,0.5],[1,0.5]];portConstraint=eastwest;fontSize=12;whiteSpace=wrap;html=1;strokeWidth=2;fontFamily=Verdana;" vertex="1" parent="yfIUXpZ3AVK_rPEgyNf7-4">
          <mxGeometry y="56" width="160" height="30" as="geometry" />
        </mxCell>
        <mxCell id="yfIUXpZ3AVK_rPEgyNf7-8" value="apellidos" style="text;spacingLeft=4;spacingRight=4;overflow=hidden;rotatable=0;points=[[0,0.5],[1,0.5]];portConstraint=eastwest;fontSize=12;whiteSpace=wrap;html=1;strokeWidth=2;fontFamily=Verdana;" vertex="1" parent="yfIUXpZ3AVK_rPEgyNf7-4">
          <mxGeometry y="86" width="160" height="30" as="geometry" />
        </mxCell>
        <mxCell id="yfIUXpZ3AVK_rPEgyNf7-9" value="ciudad" style="text;spacingLeft=4;spacingRight=4;overflow=hidden;rotatable=0;points=[[0,0.5],[1,0.5]];portConstraint=eastwest;fontSize=12;whiteSpace=wrap;html=1;strokeWidth=2;fontFamily=Verdana;" vertex="1" parent="yfIUXpZ3AVK_rPEgyNf7-4">
          <mxGeometry y="116" width="160" height="30" as="geometry" />
        </mxCell>
        <mxCell id="yfIUXpZ3AVK_rPEgyNf7-7" value="edad" style="text;spacingLeft=4;spacingRight=4;overflow=hidden;rotatable=0;points=[[0,0.5],[1,0.5]];portConstraint=eastwest;fontSize=12;whiteSpace=wrap;html=1;strokeWidth=2;fontFamily=Verdana;" vertex="1" parent="yfIUXpZ3AVK_rPEgyNf7-4">
          <mxGeometry y="146" width="160" height="30" as="geometry" />
        </mxCell>
        <mxCell id="yfIUXpZ3AVK_rPEgyNf7-10" value="NumCel" style="swimlane;fontStyle=1;childLayout=stackLayout;horizontal=1;startSize=26;horizontalStack=0;resizeParent=1;resizeParentMax=0;resizeLast=0;collapsible=1;marginBottom=0;align=center;fontSize=14;strokeWidth=2;fontFamily=Verdana;" vertex="1" parent="1">
          <mxGeometry x="740" y="150" width="160" height="146" as="geometry" />
        </mxCell>
        <mxCell id="yfIUXpZ3AVK_rPEgyNf7-11" value="id (&lt;i&gt;PK&lt;/i&gt;)" style="text;spacingLeft=4;spacingRight=4;overflow=hidden;rotatable=0;points=[[0,0.5],[1,0.5]];portConstraint=eastwest;fontSize=12;whiteSpace=wrap;html=1;strokeWidth=2;fontFamily=Verdana;" vertex="1" parent="yfIUXpZ3AVK_rPEgyNf7-10">
          <mxGeometry y="26" width="160" height="30" as="geometry" />
        </mxCell>
        <mxCell id="yfIUXpZ3AVK_rPEgyNf7-12" value="id_persona (&lt;i&gt;FK&lt;/i&gt;)" style="text;spacingLeft=4;spacingRight=4;overflow=hidden;rotatable=0;points=[[0,0.5],[1,0.5]];portConstraint=eastwest;fontSize=12;whiteSpace=wrap;html=1;strokeWidth=2;fontFamily=Verdana;" vertex="1" parent="yfIUXpZ3AVK_rPEgyNf7-10">
          <mxGeometry y="56" width="160" height="30" as="geometry" />
        </mxCell>
        <mxCell id="yfIUXpZ3AVK_rPEgyNf7-13" value="numero" style="text;spacingLeft=4;spacingRight=4;overflow=hidden;rotatable=0;points=[[0,0.5],[1,0.5]];portConstraint=eastwest;fontSize=12;whiteSpace=wrap;html=1;strokeWidth=2;fontFamily=Verdana;" vertex="1" parent="yfIUXpZ3AVK_rPEgyNf7-10">
          <mxGeometry y="86" width="160" height="30" as="geometry" />
        </mxCell>
        <mxCell id="yfIUXpZ3AVK_rPEgyNf7-14" value="tipo" style="text;spacingLeft=4;spacingRight=4;overflow=hidden;rotatable=0;points=[[0,0.5],[1,0.5]];portConstraint=eastwest;fontSize=12;whiteSpace=wrap;html=1;strokeWidth=2;fontFamily=Verdana;" vertex="1" parent="yfIUXpZ3AVK_rPEgyNf7-10">
          <mxGeometry y="116" width="160" height="30" as="geometry" />
        </mxCell>
        <mxCell id="yfIUXpZ3AVK_rPEgyNf7-16" style="edgeStyle=orthogonalEdgeStyle;rounded=0;orthogonalLoop=1;jettySize=auto;html=1;entryX=1;entryY=0.5;entryDx=0;entryDy=0;strokeWidth=2;fontFamily=Verdana;" edge="1" parent="1" source="yfIUXpZ3AVK_rPEgyNf7-12" target="yfIUXpZ3AVK_rPEgyNf7-5">
          <mxGeometry relative="1" as="geometry" />
        </mxCell>
      </root>
    </mxGraphModel>
  </diagram>
</mxfile>
